<svg xmlns="http://www.w3.org/2000/svg" width="220" height="56" viewBox="0 0 220 56">
  <!-- Icône voiture + feuille -->
  <g transform="translate(10, 4)">
    <path d="M8 32h32a4 4 0 0 0 4-4v-6a4 4 0 0 0-1.2-2.8L36 12.4a4 4 0 0 0-2.8-1.2H14.8a4 4 0 0 0-2.8 1.2L5.2 19.2A4 4 0 0 0 4 22v6a4 4 0 0 0 4 4z" fill="#003DA5"/>
    <path d="M14 13.5L9 20h12V13h-4.5a3 3 0 0 0-2.5 0.5z" fill="#e8eef8" opacity="0.9"/>
    <path d="M27 13h5.5a3 3 0 0 1 2 1L39 20H27V13z" fill="#e8eef8" opacity="0.9"/>
    <circle cx="14" cy="34" r="5" fill="#1A1A1A"/>
    <circle cx="14" cy="34" r="2.5" fill="#6B7280"/>
    <circle cx="34" cy="34" r="5" fill="#1A1A1A"/>
    <circle cx="34" cy="34" r="2.5" fill="#6B7280"/>
    <rect x="40" y="20" width="4" height="3" rx="1" fill="#f59e0b"/>
    <path d="M42 4c-4 0-8 2-10 6 0 0 2-1 5-1 3 0 5 2 5 5 0 3-2 5-5 5 3-1 9-4 9-9 0-3-1-6-4-6z" fill="#22c55e"/>
    <path d="M37 9c-2 2-3 5-2 8" stroke="#16a34a" stroke-width="1.5" fill="none"/>
  </g>
  <text x="66" y="28" font-family="Inter, Poppins, sans-serif" font-weight="700" font-size="24" fill="#003DA5">CEDEO</text>
  <text x="66" y="48" font-family="Inter, Poppins, sans-serif" font-weight="600" font-size="18" fill="#DA291C">Ride</text>
  <text x="100" y="48" font-family="Inter, Poppins, sans-serif" font-weight="400" font-size="11" fill="#6B7280">Région Ouest</text>
</svg>
